<svg width="40" height="40" viewBox="0 0 40 40" fill="none" xmlns="http://www.w3.org/2000/svg">
<path d="M15.5227 0.10498H3.29217C1.71856 0.10498 0.438477 1.38507 0.438477 2.95868V10.297C0.438477 11.8709 1.71856 13.151 3.29217 13.151H15.5227C17.0966 13.151 18.3767 11.8709 18.3767 10.297V2.95868C18.3767 1.38507 17.0966 0.10498 15.5227 0.10498Z" fill="url(#paint0_linear)"/>
<path d="M15.5217 16.4121H3.29119C1.71759 16.4121 0.4375 17.6922 0.4375 19.2661V36.3889C0.4375 37.9625 1.71759 39.2426 3.29119 39.2426H15.5217C17.0956 39.2426 18.3757 37.9625 18.3757 36.3889V19.2661C18.3757 17.6922 17.0956 16.4121 15.5217 16.4121Z" fill="url(#paint1_linear)"/>
<path d="M36.7217 26.1968H24.4912C22.9173 26.1968 21.6372 27.4769 21.6372 29.0508V36.3891C21.6372 37.9627 22.9173 39.2428 24.4912 39.2428H36.7217C38.2954 39.2428 39.5754 37.9627 39.5754 36.3891V29.0508C39.5754 27.4769 38.2954 26.1968 36.7217 26.1968Z" fill="url(#paint2_linear)"/>
<path d="M36.7217 0.10498H24.4912C22.9173 0.10498 21.6372 1.38507 21.6372 2.95868V20.0814C21.6372 21.6553 22.9173 22.9354 24.4912 22.9354H36.7217C38.2954 22.9354 39.5754 21.6553 39.5754 20.0814V2.95868C39.5754 1.38507 38.2954 0.10498 36.7217 0.10498V0.10498Z" fill="url(#paint3_linear)"/>
<defs>
<linearGradient id="paint0_linear" x1="0.438477" y1="7.2798" x2="39.5204" y2="7.2798" gradientUnits="userSpaceOnUse">
<stop stop-color="#B460F6"/>
<stop offset="1" stop-color="#9B40E2"/>
</linearGradient>
<linearGradient id="paint1_linear" x1="0.4375" y1="39.2426" x2="39.3526" y2="39.2426" gradientUnits="userSpaceOnUse">
<stop stop-color="#B460F6"/>
<stop offset="1" stop-color="#9B40E2"/>
</linearGradient>
<linearGradient id="paint2_linear" x1="0.491044" y1="39.2428" x2="39.5754" y2="39.2428" gradientUnits="userSpaceOnUse">
<stop stop-color="#B460F6"/>
<stop offset="1" stop-color="#9B40E2"/>
</linearGradient>
<linearGradient id="paint3_linear" x1="0.574979" y1="13.7427" x2="39.5754" y2="13.407" gradientUnits="userSpaceOnUse">
<stop stop-color="#B460F6"/>
<stop offset="1" stop-color="#9B40E2"/>
</linearGradient>
</defs>
</svg>
