<svg width="48" height="46" viewBox="0 0 48 46" fill="none" xmlns="http://www.w3.org/2000/svg">
<mask id="mask0" mask-type="alpha" maskUnits="userSpaceOnUse" x="0" y="0" width="48" height="46">
<path fill-rule="evenodd" clip-rule="evenodd" d="M1.06775 0.586426C0.515466 0.586426 0.0677512 1.03414 0.0677512 1.58643V2.89629C0.0677512 3.44857 0.515466 3.89629 1.06775 3.89629H22.4927C23.045 3.89629 23.4927 3.44857 23.4927 2.89629V1.58643C23.4927 1.03414 23.045 0.586426 22.4927 0.586426H1.06775ZM46.8435 15.9709L31.7356 0.863018C31.3674 0.494765 30.7687 0.494765 30.4004 0.863018L2.07325 29.1902C1.705 29.5585 1.705 30.1571 2.07325 30.5254L17.1811 45.6333C17.3643 45.8184 17.606 45.9109 17.8478 45.9109C18.0895 45.9109 18.3312 45.8184 18.5163 45.6351L46.8435 17.3079C47.2117 16.9378 47.2117 16.341 46.8435 15.9709ZM12.8509 26.7503L9.07388 30.5273C8.88878 30.7104 8.64711 30.803 8.40535 30.803C8.1636 30.803 7.92193 30.7105 7.73683 30.5273C7.36858 30.159 7.36858 29.5603 7.73683 29.1921L11.5138 25.4151C11.8821 25.0468 12.4808 25.0468 12.849 25.4151C13.2173 25.7834 13.2191 26.3801 12.8509 26.7503ZM29.1579 27.9495C28.4893 28.618 27.581 28.9391 26.5706 28.9391C24.9012 28.9391 22.9504 28.0647 21.3187 26.4311C20.1252 25.2376 19.2867 23.8099 18.9601 22.4125C18.5975 20.8545 18.8959 19.4986 19.8004 18.5921C20.705 17.6857 22.0609 17.3872 23.6208 17.7518C25.0183 18.0785 26.446 18.9151 27.6394 20.1105C30.2626 22.7316 30.9311 26.1762 29.1579 27.9495ZM41.1781 17.3079L37.4011 21.0849C37.216 21.2681 36.9743 21.3607 36.7325 21.3607C36.4908 21.3607 36.2491 21.2682 36.064 21.0849C35.6958 20.7167 35.6958 20.118 36.064 19.7497L39.841 15.9727C40.2093 15.6045 40.8079 15.6045 41.1762 15.9727C41.5444 16.341 41.5463 16.9378 41.1781 17.3079ZM2.41154 23.3076C1.92431 23.487 1.67317 24.0271 1.85066 24.5162L2.44367 26.1478L6.95894 21.6325L2.41154 23.3076ZM6.68558 37.8107L9.40499 45.2891C9.48997 45.5252 9.66746 45.7178 9.89408 45.8216C10.0206 45.8801 10.1565 45.9104 10.2925 45.9104C10.404 45.9104 10.5135 45.8915 10.6193 45.8519L13.6201 44.7453L6.68558 37.8107ZM43.9491 22.8692L47.0613 31.4259C47.2406 31.915 46.9895 32.4552 46.5004 32.6345L27.0038 39.8183L34.9184 31.9037C34.9202 31.9093 34.9184 31.915 34.9202 31.9207C35.0599 32.3021 35.4225 32.5382 35.8059 32.5382C35.9155 32.5382 36.025 32.5193 36.1326 32.4797L40.835 30.7461C41.3241 30.5666 41.5753 30.0227 41.394 29.5337C41.2145 29.0426 40.6669 28.7895 40.1816 28.9746L36.4802 30.3382L43.9491 22.8692ZM0.0664062 8.98389C0.0664062 8.43161 0.514122 7.98389 1.06641 7.98389H16.1675C16.7198 7.98389 17.1675 8.43161 17.1675 8.98389V10.2938C17.1675 10.846 16.7198 11.2938 16.1675 11.2938H1.06641C0.514121 11.2938 0.0664062 10.846 0.0664062 10.2938V8.98389ZM1.06641 14.808C0.514121 14.808 0.0664062 15.2557 0.0664062 15.808V17.1179C0.0664062 17.6702 0.514123 18.1179 1.06641 18.1179H8.17323C8.72551 18.1179 9.17323 17.6702 9.17323 17.1179V15.808C9.17323 15.2557 8.72551 14.808 8.17323 14.808H1.06641Z" fill="white"/>
</mask>
<g mask="url(#mask0)">
<rect x="50.4023" y="-5.14209" width="53.4942" height="55.5846" rx="10" transform="rotate(90 50.4023 -5.14209)" fill="url(#paint0_linear)"/>
</g>
<defs>
<linearGradient id="paint0_linear" x1="77.1494" y1="-5.14209" x2="77.1494" y2="50.4425" gradientUnits="userSpaceOnUse">
<stop stop-color="#48A7FF"/>
<stop offset="1" stop-color="#45D2FF"/>
</linearGradient>
</defs>
</svg>
