<svg width="51" height="50" viewBox="0 0 51 50" fill="none" xmlns="http://www.w3.org/2000/svg">
<mask id="mask0" mask-type="alpha" maskUnits="userSpaceOnUse" x="0" y="0" width="51" height="50">
<path d="M1.08426 25.0594C0.549583 25.2564 0.273986 25.849 0.468759 26.3857L1.11952 28.1763L6.07453 23.2212L1.08426 25.0594Z" fill="white"/>
<path d="M5.77539 40.9766L8.75964 49.1833C8.8529 49.4423 9.04767 49.6537 9.29636 49.7677C9.43518 49.8319 9.58439 49.8651 9.73361 49.8651C9.85591 49.8651 9.97608 49.8444 10.0922 49.8009L13.3852 48.5865L5.77539 40.9766Z" fill="white"/>
<path d="M50.0832 33.9691L46.6679 24.5791L38.4716 32.7754L42.5335 31.2791C43.0661 31.076 43.667 31.3537 43.8639 31.8926C44.0629 32.4293 43.7873 33.0261 43.2505 33.223L38.0902 35.1255C37.9721 35.169 37.8519 35.1897 37.7316 35.1897C37.3109 35.1897 36.913 34.9306 36.7597 34.512C36.7577 34.5058 36.7597 34.4996 36.7577 34.4934L28.0723 43.1788L49.4677 35.2954C50.0044 35.0986 50.28 34.5058 50.0832 33.9691Z" fill="white"/>
<path d="M49.8456 17.0088L33.2664 0.429553C32.8623 0.0254355 32.2053 0.0254355 31.8012 0.429553L0.715198 31.5155C0.31108 31.9196 0.31108 32.5766 0.715198 32.9807L17.2944 49.5599C17.4954 49.7631 17.7607 49.8646 18.026 49.8646C18.2913 49.8646 18.5565 49.7631 18.7596 49.562L49.8456 18.476C50.2497 18.0699 50.2497 17.4149 49.8456 17.0088ZM12.5424 28.838L8.39761 32.9828C8.19448 33.1838 7.92928 33.2854 7.66398 33.2854C7.39868 33.2854 7.13348 33.1839 6.93035 32.9828C6.52623 32.5787 6.52623 31.9217 6.93035 31.5176L11.0752 27.3727C11.4793 26.9686 12.1363 26.9686 12.5404 27.3727C12.9445 27.7769 12.9466 28.4318 12.5424 28.838ZM30.4376 30.154C29.7039 30.8876 28.7071 31.2399 27.5983 31.2399C25.7663 31.2399 23.6256 30.2804 21.835 28.4877C20.5252 27.178 19.6051 25.6112 19.2466 24.0777C18.8487 22.368 19.1762 20.88 20.1688 19.8853C21.1615 18.8905 22.6495 18.5631 24.3612 18.9631C25.8948 19.3217 27.4616 20.2397 28.7713 21.5515C31.6499 24.4279 32.3835 28.208 30.4376 30.154ZM43.6284 18.476L39.4836 22.6209C39.2804 22.8218 39.0152 22.9235 38.7499 22.9235C38.4846 22.9235 38.2194 22.8219 38.0163 22.6209C37.6122 22.2167 37.6122 21.5598 38.0163 21.1556L42.1611 17.0108C42.5653 16.6067 43.2222 16.6067 43.6264 17.0108C44.0305 17.4149 44.0325 18.0699 43.6284 18.476Z" fill="white"/>
</mask>
<g mask="url(#mask0)">
<rect x="52.0215" y="-2.71826" width="56.5883" height="56.7233" rx="10" transform="rotate(90 52.0215 -2.71826)" fill="url(#paint0_linear)"/>
</g>
<defs>
<linearGradient id="paint0_linear" x1="80.3156" y1="-2.71826" x2="80.3156" y2="54.005" gradientUnits="userSpaceOnUse">
<stop stop-color="#3EF351"/>
<stop offset="0.958333" stop-color="#3ABD47"/>
</linearGradient>
</defs>
</svg>
