<svg width="46" height="44" viewBox="0 0 46 44" fill="none" xmlns="http://www.w3.org/2000/svg">
<mask id="mask0" mask-type="alpha" maskUnits="userSpaceOnUse" x="0" y="0" width="46" height="44">
<path fill-rule="evenodd" clip-rule="evenodd" d="M43.1594 0.295186C43.7166 0.216359 44.2811 0.381209 44.7061 0.747646C45.1313 1.11408 45.3755 1.64579 45.3754 2.20511V9.9222V31.5186C45.3754 35.7881 41.8797 39.2616 37.583 39.2616C33.2862 39.2616 29.7905 35.7881 29.7905 31.5186C29.7905 27.2491 33.2862 23.7756 37.583 23.7756C39.0072 23.7756 40.3422 24.1589 41.4923 24.8247V12.1468L18.1932 15.4541V35.3772C18.1932 39.6467 14.6975 43.1202 10.4008 43.1202C6.10409 43.1202 2.60843 39.6467 2.60843 35.3772C2.60843 31.1077 6.10417 27.6342 10.4009 27.6342C11.8251 27.6342 13.1602 28.0175 14.3102 28.6833V13.7808V6.06369C14.3102 5.10355 15.0206 4.2895 15.9772 4.15369L43.1594 0.295186ZM1.44727 4.51862C0.894981 4.51862 0.447266 4.96633 0.447266 5.51862V7.25825C0.447266 7.81054 0.89498 8.25825 1.44726 8.25825H9.80224C10.3545 8.25825 10.8022 7.81054 10.8022 7.25825V5.51862C10.8022 4.96634 10.3545 4.51862 9.80224 4.51862H1.44727ZM0.447266 13.8771C0.447266 13.3249 0.894981 12.8771 1.44727 12.8771H9.80224C10.3545 12.8771 10.8022 13.3249 10.8022 13.8771V15.6168C10.8022 16.1691 10.3545 16.6168 9.80224 16.6168H1.44726C0.89498 16.6168 0.447266 16.1691 0.447266 15.6168V13.8771ZM1.44727 20.5869C0.894981 20.5869 0.447266 21.0346 0.447266 21.5869V23.3265C0.447266 23.8788 0.89498 24.3265 1.44726 24.3265H9.80224C10.3545 24.3265 10.8022 23.8788 10.8022 23.3265V21.5869C10.8022 21.0346 10.3545 20.5869 9.80224 20.5869H1.44727Z" fill="white"/>
</mask>
<g mask="url(#mask0)">
<rect x="47.7031" y="-0.77002" width="47.1999" height="51.3765" rx="10" transform="rotate(90 47.7031 -0.77002)" fill="url(#paint0_linear)"/>
</g>
<defs>
<linearGradient id="paint0_linear" x1="71.3031" y1="-0.77002" x2="71.3031" y2="50.6065" gradientUnits="userSpaceOnUse">
<stop stop-color="#FFA41C"/>
<stop offset="1" stop-color="#FFC24D"/>
</linearGradient>
</defs>
</svg>
